<svg xmlns="http://www.w3.org/2000/svg" width="221.109" height="140.073" viewBox="0 0 221.109 140.073"><path d="M3332.307,1010.344q-1.074-.014-2.166.006h-86.792v123.083h166.645c15.546.542,27.923-2.3,37.082-7.577,9.192-5.3,15.08-13.226,16.824-21.925,3.49-17.4-9.578-35.725-33.706-42.389-26.175-7.23-38.668-18.821-50.816-29.654-11.031-9.837-22.444-19.31-41.173-21.188v-.279Zm-73.866,24.216h21.481v27.357H3258.44Zm31.042,0h21.392v27.357h-21.392Zm42.479,0h41.43c10.1,8.931,20.928,19.432,39.641,27.356h-81.071Zm-73.521,72.381h198.329a28.172,28.172,0,0,1-11.639,13.108H3258.44Zm-14.979,35.738v7.731h197.146v-7.731Z" transform="translate(-3243.348 -1010.339)" /></svg>