<svg xmlns="http://www.w3.org/2000/svg" width="200.573" height="172.754" viewBox="0 0 200.573 172.754"><path d="M2486.9,931.306a6.6,6.6,0,0,0-4.68,1.908l-14.826,14.826a6.693,6.693,0,0,0,0,9.36l13.024,13.024h-44.521a7.667,7.667,0,0,0-7.6,7.6v105.839a7.667,7.667,0,0,0,7.6,7.6h15.641c-.035.363-.054.73-.054,1.1a11.5,11.5,0,0,0,23,0c0-.371-.02-.739-.054-1.1h7.177c-.035.363-.054.73-.054,1.1a11.5,11.5,0,0,0,23,0c0-.371-.02-.739-.054-1.1h48.179c-.035.363-.055.73-.055,1.1a11.5,11.5,0,0,0,23,0c0-.371-.02-.739-.054-1.1h7.177c-.035.363-.054.73-.054,1.1a11.5,11.5,0,0,0,23,0c0-.371-.02-.739-.054-1.1h15.641a7.667,7.667,0,0,0,7.6-7.6V978.022a7.667,7.667,0,0,0-7.6-7.6h-44.522l13.023-13.024a6.693,6.693,0,0,0,0-9.36l-14.825-14.826a6.695,6.695,0,0,0-9.361,0l-14.825,14.826a6.694,6.694,0,0,0,0,9.36l13.024,13.024h-70.405L2506.4,957.4a6.694,6.694,0,0,0,0-9.36l-14.826-14.826A6.6,6.6,0,0,0,2486.9,931.306Zm0,8.491,12.922,12.922-12.922,12.922-12.922-12.922Zm83.369,0,12.922,12.922-12.922,12.922-12.922-12.922Zm-.741,56.977h28.819a1.987,1.987,0,0,1,1.991,1.991v64.353a1.987,1.987,0,0,1-1.991,1.991h-28.819a1.987,1.987,0,0,1-1.991-1.991V998.765A1.987,1.987,0,0,1,2569.519,996.774Zm-107.97,3.982h26.075v32.8h-26.075c-2.617,0-4.724-1.776-4.724-3.982v-24.836C2456.825,1002.532,2458.932,1000.756,2461.549,1000.756Zm34.18,0H2521.8c2.617,0,4.723,1.776,4.723,3.982v24.836c0,2.206-2.106,3.982-4.723,3.982h-26.076Zm-38.107,53.827H2527.1a.8.8,0,0,1,.8.8v5.241a.8.8,0,0,1-.8.8h-69.475a.8.8,0,0,1-.8-.8v-5.241a.8.8,0,0,1,.8-.8Z" transform="translate(-2428.292 -931.306)" /></svg>